<?xml version="1.0" encoding="UTF-8"?>
<svg version="1.1" xmlns="http://www.w3.org/2000/svg" width="500" height="500">
<path d="M0 0 C165 0 330 0 500 0 C500 165 500 330 500 500 C335 500 170 500 0 500 C0 335 0 170 0 0 Z " fill="#FEFEFE" transform="translate(0,0)"/>
<path d="M0 0 C1.43182617 -0.04253906 1.43182617 -0.04253906 2.89257812 -0.0859375 C9.88428903 -0.10550842 9.88428903 -0.10550842 13.11328125 2.77734375 C14.30841966 5.02265768 15.39026509 7.19574409 16.3125 9.5625 C18.60791182 14.35135917 21.79093157 15.62577862 26.5625 17.5 C27.635 18.0775 28.7075 18.655 29.8125 19.25 C35.02462175 20.98737392 40.11036766 21.11376344 45.5625 20.5 C46.5525 19.84 47.5425 19.18 48.5625 18.5 C51.2890625 17.9609375 51.2890625 17.9609375 54.5625 18.5 C57.34752366 20.39757186 59.60490643 22.70475156 61.9375 25.125 C62.57816406 25.74246094 63.21882812 26.35992187 63.87890625 26.99609375 C68.43444492 31.60991223 68.43444492 31.60991223 69.0390625 35.8125 C68.5625 38.5 68.5625 38.5 67.5625 40.875 C65.12890211 47.26319445 66.68443812 53.14154705 69.1875 59.1875 C69.54134766 60.14366211 69.54134766 60.14366211 69.90234375 61.11914062 C72.79823048 68.31430534 77.74348575 71.24547047 84.5625 74.5 C87.91730749 77.85480749 86.93142933 82.32199691 86.9375 86.875 C86.96199219 87.8340625 86.98648438 88.793125 87.01171875 89.78125 C87.04110043 96.81326648 87.04110043 96.81326648 84.79296875 100.0390625 C82.09594788 101.80558755 79.4184187 103.10513284 76.46484375 104.375 C70.42387299 107.94748373 68.5212892 116.20173933 66.5625 122.5 C65.95597483 126.30897804 66.09188529 129.39267126 67.625 133 C69.07429401 136.86478402 69.19143892 139.75970564 67.5625 143.5 C59.62227011 152.97011494 59.62227011 152.97011494 54.5625 155.5 C49.87760001 155.76518302 46.85151534 155.21560614 42.5625 153.5 C36.66650455 153.0092774 32.62339639 154.30724135 27.375 156.6875 C26.67697266 156.97947266 25.97894531 157.27144531 25.25976562 157.57226562 C20.19383312 159.8136154 17.09435822 162.32822717 14.62109375 167.44921875 C14.41613281 168.02285156 14.21117187 168.59648437 14 169.1875 C12.5625 172.5 12.5625 172.5 9.5625 174.5 C6.45362583 174.97499843 3.32889509 174.91627436 0.1875 174.9375 C-0.66328125 174.97037109 -1.5140625 175.00324219 -2.390625 175.03710938 C-6.82537577 175.07510179 -8.81344015 174.97392842 -12.44140625 172.21875 C-14.14147478 169.90319678 -15.12774859 168.24508451 -16 165.5625 C-18.70932044 159.66443204 -24.71604682 157.78566959 -30.4375 155.5 C-35.01692931 153.8337225 -38.53350531 153.13674113 -43.4375 153.5 C-44.0975 153.83 -44.7575 154.16 -45.4375 154.5 C-48.71555 156.139025 -50.81571474 156.04326779 -54.4375 155.5 C-57.47403018 153.51480232 -59.9225944 151.1012761 -62.4375 148.5 C-63.04464844 147.901875 -63.65179688 147.30375 -64.27734375 146.6875 C-66.93972857 143.88103318 -68.31598469 142.2594707 -68.9375 138.375 C-68.4375 135.5 -68.4375 135.5 -67.4375 133.125 C-65.17102396 127.1755004 -66.27399568 121.8866061 -68.73046875 116.25585938 C-69.04628906 115.57330078 -69.36210937 114.89074219 -69.6875 114.1875 C-69.98785156 113.48560547 -70.28820312 112.78371094 -70.59765625 112.06054688 C-73.51484634 105.54962686 -77.27907665 103.4396634 -83.6328125 100.5625 C-85.4375 99.5 -85.4375 99.5 -87.4375 96.5 C-87.91249843 93.39112583 -87.85377436 90.26639509 -87.875 87.125 C-87.90787109 86.27421875 -87.94074219 85.4234375 -87.97460938 84.546875 C-88.01270649 80.09990217 -87.91815836 78.1267328 -85.13671875 74.5 C-82.06359783 72.22295527 -78.96997846 70.93915789 -75.4375 69.5 C-72.02769671 66.93603939 -70.78307858 63.15465989 -69.25 59.3125 C-68.84104492 58.36020508 -68.84104492 58.36020508 -68.42382812 57.38867188 C-65.7379778 50.73126344 -65.61823882 45.19574529 -68.4375 38.5 C-68.97928463 35.39828299 -69.00588427 33.36846873 -67.25 30.68554688 C-65.56396403 28.70817381 -63.78893736 26.88559903 -61.9375 25.0625 C-61.33679688 24.41345703 -60.73609375 23.76441406 -60.1171875 23.09570312 C-55.65613729 18.62041552 -55.65613729 18.62041552 -52.21875 18.28076172 C-47.07716195 18.86033805 -47.07716195 18.86033805 -45.4375 20.5 C-35.62490632 21.81084267 -26.17290673 19.09890911 -18.3125 13.125 C-16.13408939 10.07522514 -14.84837132 6.96304778 -13.4375 3.5 C-9.98203147 -1.00696218 -5.23543164 -0.01408321 0 0 Z " fill="#72AFF1" transform="translate(354.4375,177.5)"/>
<path d="M0 0 C1.14570465 0.0028299 2.2914093 0.00565979 3.47183228 0.00857544 C7.11935005 0.01974115 10.76661935 0.04483951 14.4140625 0.0703125 C16.89192353 0.08034695 19.36978842 0.08947199 21.84765625 0.09765625 C27.91154264 0.1196687 33.97528481 0.15311056 40.0390625 0.1953125 C39.88058838 0.76604492 39.72211426 1.33677734 39.55883789 1.92480469 C39.04544907 4.16741438 38.83740354 6.22849165 38.72265625 8.5234375 C38.68076172 9.32265625 38.63886719 10.121875 38.59570312 10.9453125 C38.55638672 11.7703125 38.51707031 12.5953125 38.4765625 13.4453125 C38.41178711 14.70601562 38.41178711 14.70601562 38.34570312 15.9921875 C38.23997707 18.05971921 38.13904955 20.12749531 38.0390625 22.1953125 C36.77312256 22.20989502 35.50718262 22.22447754 34.20288086 22.23950195 C29.48564046 22.29767372 24.76886799 22.37490543 20.05200195 22.45776367 C18.01431905 22.49092434 15.97654626 22.51898362 13.9387207 22.54174805 C11.00172787 22.57545712 8.06555227 22.62778124 5.12890625 22.68359375 C4.22446274 22.68998367 3.32001923 22.6963736 2.38816833 22.70295715 C-4.49211036 22.86124991 -9.36075241 23.94969811 -14.7109375 28.5703125 C-20.08157879 34.83606068 -20.39751545 39.18820854 -20.36207581 47.25201416 C-20.36887248 48.3810802 -20.37566914 49.51014623 -20.38267177 50.67342639 C-20.40169519 54.46499448 -20.39920354 58.25624096 -20.39672852 62.04785156 C-20.4040715 64.76302817 -20.41582522 67.47818208 -20.42726135 70.19334412 C-20.45217419 76.80846599 -20.46042559 83.42350767 -20.46209849 90.03867254 C-20.46352446 95.41701593 -20.46969116 100.79533288 -20.47920036 106.17366791 C-20.50561968 121.42704499 -20.51945876 136.68035876 -20.51720894 151.93375888 C-20.51708907 152.75596513 -20.5169692 153.57817138 -20.5168457 154.42529297 C-20.51672306 155.24850496 -20.51660042 156.07171695 -20.51647406 156.91987476 C-20.51525505 170.25726339 -20.54395401 183.59439779 -20.5862608 196.9317129 C-20.62937254 210.6310731 -20.65007019 224.33030938 -20.64747947 238.02973914 C-20.64648417 245.71903452 -20.65469793 253.40806345 -20.68701363 261.09729767 C-20.71435609 267.64511611 -20.72083275 274.19254739 -20.70048536 280.74039826 C-20.69070165 284.07962722 -20.69374205 287.41750894 -20.7165451 290.75676537 C-20.7396966 294.38206458 -20.7257811 298.00541901 -20.70265198 301.63067627 C-20.71808267 302.67884278 -20.73351336 303.72700928 -20.74941164 304.80693841 C-20.64721322 312.06445611 -18.76849378 316.71864512 -13.9609375 322.1953125 C-8.70666942 326.19856437 -3.70755139 326.34480802 2.71734619 326.34921265 C3.49507787 326.3535949 4.27280954 326.35797715 5.07410884 326.3624922 C7.6825464 326.37585649 10.29095019 326.3820537 12.89941406 326.38818359 C14.76877494 326.39608635 16.6381343 326.40435541 18.50749207 326.41296387 C24.6482091 326.43916111 30.78893288 326.45448795 36.9296875 326.46875 C39.04440058 326.47411038 41.15911361 326.47948789 43.2738266 326.48488235 C52.07021621 326.50650656 60.866604 326.52524347 69.66301346 326.53650475 C82.26623763 326.55274637 94.86915366 326.58593475 107.47226167 326.64290559 C116.33608831 326.68160692 125.19983253 326.7011376 134.06374145 326.70642531 C139.35698836 326.7100781 144.64990642 326.72209233 149.94306183 326.75452805 C154.92375961 326.78461235 159.9039296 326.79091912 164.88469887 326.77914429 C166.71000194 326.77892359 168.53532953 326.78722522 170.36054802 326.80479813 C183.12483602 327.15004615 183.12483602 327.15004615 194.0390625 321.1953125 C199.92656598 314.99794042 200.38620428 309.07384142 200.6640625 300.8828125 C200.72207031 299.48579102 200.72207031 299.48579102 200.78125 298.06054688 C200.87512563 295.77232843 200.96080759 293.48410955 201.0390625 291.1953125 C202.4731283 290.68794329 203.90985009 290.18807685 205.34765625 289.69140625 C206.14743896 289.41224365 206.94722168 289.13308105 207.77124023 288.84545898 C212.56733287 287.47049993 215.98692982 289.09919178 220.22265625 291.25390625 C221.29664673 291.79809204 221.29664673 291.79809204 222.39233398 292.35327148 C222.93575439 292.63114502 223.4791748 292.90901855 224.0390625 293.1953125 C224.61991184 309.9327097 224.65918705 323.94469616 213.0390625 337.1953125 C203.89021881 346.05506634 193.40045588 349.34552045 180.881073 349.34248352 C180.06376807 349.34616021 179.24646315 349.3498369 178.40439141 349.353625 C175.6678626 349.36463107 172.93137181 349.36850045 170.19482422 349.37231445 C168.2316628 349.37858145 166.26850257 349.38522846 164.30534363 349.39222717 C157.85982078 349.41324262 151.41429777 349.4236275 144.96875 349.43359375 C142.74730543 349.4376423 140.52586098 349.44175926 138.30441666 349.44594383 C127.86649901 349.4649903 117.42858841 349.47922225 106.99065673 349.4875558 C94.95390595 349.49732528 82.91733921 349.52363967 70.88065326 349.56405669 C61.56920336 349.5942467 52.25780614 349.60902744 42.94630826 349.61233681 C37.38867148 349.61468406 31.83123145 349.62360231 26.27364731 349.64879799 C21.04182599 349.67213399 15.81033017 349.67628965 10.57847023 349.66603661 C8.66413221 349.66554248 6.74977786 349.67182647 4.83548927 349.68559265 C-10.17702575 349.78746344 -21.62822809 348.23576588 -32.83203125 337.3828125 C-42.6887969 326.86892914 -44.11048354 316.51174936 -44.10810852 302.67704773 C-44.11178521 301.5224771 -44.1154619 300.36790646 -44.11925 299.17834884 C-44.12833664 295.98681855 -44.13297762 292.7953185 -44.13563931 289.60377753 C-44.13955892 286.15649796 -44.1491357 282.70923304 -44.15785217 279.26196289 C-44.17756498 270.94589392 -44.187674 262.62982383 -44.19657996 254.31373736 C-44.20096942 250.39350714 -44.20633433 246.47327826 -44.21156883 242.55304909 C-44.22857225 229.51625569 -44.24306708 216.47946311 -44.25031757 203.44266033 C-44.25222731 200.06374294 -44.25414767 196.68482556 -44.25610352 193.3059082 C-44.25658726 192.46614584 -44.257071 191.62638347 -44.2575694 190.76117376 C-44.26587247 177.15306093 -44.29121801 163.54503591 -44.32368419 149.93696143 C-44.35677223 135.95391633 -44.37476771 121.97091586 -44.37796181 107.98783141 C-44.38012477 100.14153291 -44.38884252 92.29536267 -44.41442299 84.4491024 C-44.43615346 77.76858655 -44.44416873 71.08823016 -44.43445621 64.40768298 C-44.4299189 61.0017976 -44.43176415 57.5962411 -44.45121765 54.19040108 C-44.46891238 50.49150014 -44.46184108 46.79342982 -44.44868469 43.0945282 C-44.45965394 42.02729308 -44.47062318 40.96005797 -44.48192483 39.86048239 C-44.37813445 27.74809261 -39.62624851 18.96618274 -31.234375 10.44140625 C-27.24565448 6.80784578 -22.9443695 4.24457426 -17.9609375 2.1953125 C-17.17452881 1.85161621 -16.38812012 1.50791992 -15.57788086 1.15380859 C-10.3724438 -0.22564101 -5.36136781 -0.05001777 0 0 Z " fill="#1B1A48" transform="translate(102.9609375,50.8046875)"/>
<path d="M0 0 C0.72574219 -0.01224609 1.45148438 -0.02449219 2.19921875 -0.03710938 C13.86818978 -0.06830983 25.5947738 4.39360143 34.16796875 12.4453125 C37.48241735 16.09529788 40.20820305 19.9672718 42.75 24.1875 C43.26175781 25.03699219 43.77351563 25.88648438 44.30078125 26.76171875 C49.4218464 36.87401923 49.73162735 50.1951534 46.86328125 61.11328125 C42.82499667 72.53049114 34.63500328 82.75570073 24.01171875 88.7265625 C21.29118368 90.01345461 18.57265038 91.14535554 15.75 92.1875 C15.08355469 92.43371094 14.41710937 92.67992187 13.73046875 92.93359375 C1.97700959 96.52149181 -10.12056346 94.02478066 -20.97265625 88.90234375 C-32.74856189 82.36826319 -40.9184021 72.34589895 -45.125 59.51953125 C-48.3195264 45.56566246 -45.88815157 32.09728979 -38.3125 20.0078125 C-29.25791554 7.6263542 -15.29605439 0.01330092 0 0 Z " fill="#FDFEFE" transform="translate(353.25,217.8125)"/>
<path d="M0 0 C6.17142579 -0.09245582 12.34039311 -0.17190347 18.51196289 -0.21972656 C20.60579629 -0.23968776 22.69957506 -0.26686659 24.79321289 -0.30175781 C41.75443618 -0.5770892 55.86615459 -0.14618023 69 12 C81.08740592 25.37042666 80.5570276 40.30305537 80.390625 57.265625 C80.38315303 59.51291396 80.37746462 61.76020949 80.37347412 64.00750732 C80.35829316 69.88643784 80.31907689 75.76496519 80.2746582 81.64373779 C80.2335421 87.65696766 80.21542836 93.67026346 80.1953125 99.68359375 C80.15257487 111.45590508 80.08441581 123.22791885 80 135 C78.56600799 135.66234893 77.12927529 136.31876648 75.69140625 136.97265625 C74.49173218 137.52191772 74.49173218 137.52191772 73.26782227 138.08227539 C68.64381371 139.95348307 65.29903814 139.2023924 60.81640625 137.47265625 C60.1004126 137.1981665 59.38441895 136.92367676 58.64672852 136.64086914 C58.10330811 136.42938232 57.5598877 136.21789551 57 136 C56.99453156 134.18502014 56.99453156 134.18502014 56.98895264 132.33337402 C56.95196995 120.91597724 56.89416115 109.49884936 56.81609726 98.08165741 C56.77663183 92.2123047 56.74443858 86.34310181 56.72900391 80.47363281 C56.71383146 74.80650825 56.6793747 69.13979561 56.63169098 63.47285461 C56.61688339 61.31361985 56.60895935 59.15432627 56.60811615 56.99504089 C56.60574295 53.96434905 56.57863375 50.93479232 56.54589844 47.90429688 C56.5509288 47.01668671 56.55595917 46.12907654 56.56114197 45.21456909 C56.45401066 38.78040921 55.08806183 33.25908581 50.55291367 28.47277069 C46.58275359 25.02707663 43.06539634 22.77898882 37.78222656 22.68115234 C36.96167786 22.66128265 36.14112915 22.64141296 35.29571533 22.62094116 C34.41953552 22.60938995 33.54335571 22.59783875 32.640625 22.5859375 C31.73624695 22.56657135 30.8318689 22.5472052 29.90008545 22.5272522 C27.01681901 22.46756169 24.13351242 22.42111314 21.25 22.375 C19.29295152 22.33681053 17.33591967 22.29775823 15.37890625 22.2578125 C10.58602496 22.16024749 5.79331688 22.08059559 1 22 C0.67 14.74 0.34 7.48 0 0 Z " fill="#1A1948" transform="translate(247,51)"/>
<path d="M0 0 C3.7516094 3.47152854 7.0192402 7.24808105 9 12 C9.125 15.25 9.125 15.25 9 18 C9.8353125 17.93039063 9.8353125 17.93039063 10.6875 17.859375 C16.66838885 17.57649512 21.15856882 18.32824232 26 22 C36.46398187 33.30564998 33 39.58131301 33 58 C3.63 58 -25.74 58 -56 58 C-56 34 -56 34 -51 24 C-45.18585113 18.9668562 -41.52453796 17.29980123 -33.87109375 17.7890625 C-33.25363281 17.85867187 -32.63617188 17.92828125 -32 18 C-31.9175 16.80375 -31.835 15.6075 -31.75 14.375 C-30.8553244 7.5077603 -26.81864241 3.56114263 -21.78125 -0.80078125 C-15.53048064 -5.00908431 -6.18717129 -3.74194192 0 0 Z " fill="#72AFF1" transform="translate(206,23)"/>
<path d="M0 0 C0.73997726 -0.00570007 1.47995453 -0.01140015 2.24235535 -0.01727295 C3.81007456 -0.02672518 5.37781366 -0.03325782 6.94555664 -0.03710938 C9.33580582 -0.04679532 11.7251878 -0.07780695 14.11523438 -0.109375 C15.63931782 -0.11590723 17.1634074 -0.12115684 18.6875 -0.125 C19.39912796 -0.1373468 20.11075592 -0.1496936 20.84394836 -0.16241455 C26.36137958 -0.13784261 29.37944022 1.14327048 33.32617188 4.90087891 C35.07316313 8.2062817 35.01070554 11.38638314 35.01171875 15.0390625 C35.02313904 16.17452011 35.02313904 16.17452011 35.03479004 17.33291626 C35.0455756 18.93154612 35.04845039 20.53024635 35.04394531 22.12890625 C35.0429745 24.56370864 35.08457376 26.99534121 35.12890625 29.4296875 C35.13411503 30.98697263 35.13680141 32.54426866 35.13671875 34.1015625 C35.16131165 35.18466202 35.16131165 35.18466202 35.18640137 36.28964233 C35.13411098 40.1521702 34.56122593 42.6602773 32.19335938 45.64697266 C26.84011922 50.809871 19.14581548 49.49958397 12.11987305 49.55322266 C10.5321587 49.5697698 8.94451848 49.59704408 7.35717773 49.63525391 C5.05804144 49.69025145 2.76064449 49.71192816 0.4609375 49.7265625 C-0.59405693 49.76056656 -0.59405693 49.76056656 -1.67036438 49.79525757 C-5.53781418 49.77882023 -7.93206092 49.18975626 -10.8894043 46.79541016 C-16.1089388 41.52574986 -14.75538581 34.44710374 -14.80712891 27.42822266 C-14.82365987 25.78517464 -14.85091254 24.14219769 -14.88916016 22.49951172 C-14.94415305 20.12429704 -14.96583679 17.75076704 -14.98046875 15.375 C-15.00313812 14.64665955 -15.0258075 13.91831909 -15.04916382 13.16790771 C-15.03303176 9.24069224 -14.48594318 6.76484011 -12.04931641 3.75488281 C-8.09405914 -0.13853863 -5.30629186 0.03142131 0 0 Z " fill="#1E1D4A" transform="translate(121.45703125,116.796875)"/>
<path d="M0 0 C1.2098481 -0.01210762 1.2098481 -0.01210762 2.44413757 -0.02445984 C4.15308482 -0.03830018 5.86205971 -0.04902257 7.57104492 -0.05688477 C10.17875905 -0.07408381 12.78520062 -0.11796669 15.39257812 -0.16210938 C17.0533761 -0.17223772 18.71418485 -0.18075338 20.375 -0.1875 C21.54087395 -0.21376213 21.54087395 -0.21376213 22.7303009 -0.24055481 C26.49840342 -0.22553462 28.65166982 0.08775949 31.85620117 2.13989258 C35.39965701 5.80179025 35.07627373 9.02115932 35.125 13.87890625 C35.13307175 14.63870789 35.14114349 15.39850952 35.14945984 16.18133545 C35.16330013 17.7919283 35.17402254 19.40255047 35.18188477 21.01318359 C35.19905635 23.46509235 35.24293509 25.91563785 35.28710938 28.3671875 C35.29724031 29.93358385 35.30575516 31.49999166 35.3125 33.06640625 C35.33000809 33.7947467 35.34751617 34.52308716 35.36555481 35.27349854 C35.34393883 40.39987014 34.12659984 43.2984049 30.88671875 47.23828125 C26.0298553 49.66671297 18.603427 48.55085412 13.20239258 48.58837891 C11.45551219 48.60493086 9.70869932 48.6322112 7.9621582 48.67041016 C5.44056149 48.72526377 2.920551 48.74706451 0.3984375 48.76171875 C-0.3788118 48.78438812 -1.1560611 48.8070575 -1.9568634 48.83041382 C-6.050045 48.81451906 -7.86125289 48.44263081 -11.08276367 45.83056641 C-14.32328262 41.69351817 -14.30066578 38.65824326 -14.3515625 33.5625 C-14.35963425 32.80032669 -14.36770599 32.03815338 -14.37602234 31.25288391 C-14.389861 29.63809482 -14.40058414 28.02327651 -14.40844727 26.40844727 C-14.42564317 23.94555792 -14.46952632 21.48401719 -14.51367188 19.02148438 C-14.5238006 17.45183278 -14.53231614 15.88216978 -14.5390625 14.3125 C-14.55657059 13.57899826 -14.57407867 12.84549652 -14.59211731 12.08976746 C-14.57664043 8.41892374 -14.22374405 6.4091873 -12.21166992 3.29614258 C-8.45931127 -0.38374469 -5.00192172 0.04716944 0 0 Z " fill="#1C1B49" transform="translate(121.11328125,201.76171875)"/>
<path d="M0 0 C1.74688039 -0.01655196 3.49369325 -0.04383229 5.24023438 -0.08203125 C7.76183109 -0.13688486 10.28184158 -0.15868561 12.80395508 -0.17333984 C13.96982903 -0.2073439 13.96982903 -0.2073439 15.15925598 -0.24203491 C19.25243758 -0.22614015 21.06364547 0.1457481 24.28515625 2.7578125 C27.48927318 6.84838765 27.48897757 9.77104601 27.51879883 14.80712891 C27.5244989 15.54710617 27.53019897 16.28708344 27.53607178 17.04948425 C27.54552401 18.61720347 27.55205665 20.18494257 27.5559082 21.75268555 C27.56559415 24.14293472 27.59660578 26.53231671 27.62817383 28.92236328 C27.63470606 30.44644672 27.63995567 31.97053631 27.64379883 33.49462891 C27.65614563 34.20625687 27.66849243 34.91788483 27.68121338 35.65107727 C27.66153331 40.07007841 27.04922266 42.85069076 24.31567383 46.35009766 C20.54319896 48.8650809 17.48066299 48.69103467 13.10473633 48.72119141 C11.89701065 48.73473412 11.89701065 48.73473412 10.66488647 48.74855042 C8.96193153 48.76305246 7.25892088 48.77193955 5.5559082 48.77563477 C2.95664041 48.78752462 0.35975255 48.8367001 -2.23901367 48.88720703 C-3.89525211 48.89667245 -5.5515051 48.90390692 -7.20776367 48.90869141 C-8.36893204 48.93798988 -8.36893204 48.93798988 -9.55355835 48.96788025 C-13.63427988 48.93393845 -15.44249101 48.54650665 -18.65161133 45.94018555 C-21.84672707 41.86896492 -21.87074023 38.94551643 -21.92260742 33.92822266 C-21.93067917 33.19061707 -21.93875092 32.45301147 -21.94706726 31.6930542 C-21.96090668 30.12954049 -21.97162948 28.56599659 -21.97949219 27.00244141 C-21.99666133 24.62294321 -22.04054004 22.24485073 -22.0847168 19.86572266 C-22.094848 18.34489952 -22.10336277 16.82406458 -22.11010742 15.30322266 C-22.12761551 14.59675598 -22.1451236 13.89028931 -22.16316223 13.16241455 C-22.14118254 8.10019945 -20.86888914 5.24345283 -17.68432617 1.35009766 C-12.82746272 -1.07833407 -5.40103443 0.03752479 0 0 Z " fill="#1C1B49" transform="translate(128.684326171875,285.64990234375)"/>
<path d="M0 0 C0.91539047 0.00404846 1.83078094 0.00809692 2.77391052 0.01226807 C4.21793495 0.00701111 4.21793495 0.00701111 5.69113159 0.00164795 C8.88481277 -0.00718065 12.07827383 -0.0013162 15.2719574 0.00543213 C17.48391258 0.0040858 19.69586748 0.00214555 21.90782166 -0.00036621 C26.54827181 -0.00331901 31.18864507 0.00098518 35.8290863 0.01031494 C41.78814565 0.02170952 47.74702485 0.01515088 53.70607758 0.00317001 C58.27500271 -0.00404438 62.84388488 -0.00176259 67.41281128 0.0034256 C69.61053488 0.00476326 71.80826234 0.00311033 74.00598145 -0.00153351 C77.07326139 -0.00659181 80.14024639 0.00110174 83.20750427 0.01226807 C84.12289474 0.0082196 85.03828522 0.00417114 85.98141479 0 C92.26217998 0.04252971 92.26217998 0.04252971 94.4907074 2.27105713 C94.2407074 5.33355713 94.2407074 5.33355713 93.4907074 8.27105713 C90.04967077 9.99157544 86.08644901 9.41821507 82.29930115 9.4163208 C80.86990707 9.42135872 80.86990707 9.42135872 79.41163635 9.42649841 C76.25048024 9.43602523 73.08937698 9.43795228 69.9282074 9.43902588 C67.73867267 9.44223685 65.54913815 9.4456008 63.35960388 9.44911194 C58.76625572 9.45510726 54.17292639 9.45695138 49.57957458 9.45635986 C43.68106213 9.45625813 37.78266975 9.4699205 31.88418579 9.48713207 C27.361592 9.49822525 22.83902751 9.50027991 18.31642151 9.49975014 C16.1410226 9.50093392 13.96562302 9.50537783 11.79023743 9.5130825 C8.75410939 9.52282997 5.71824553 9.52002538 2.68211365 9.51397705 C1.77607391 9.51959656 0.87003418 9.52521606 -0.0634613 9.53100586 C-6.28097638 9.49937335 -6.28097638 9.49937335 -8.5092926 7.27105713 C-8.7592926 4.77105713 -8.7592926 4.77105713 -8.5092926 2.27105713 C-5.80204635 -0.43618912 -3.67736503 0.02490099 0 0 Z " fill="#71AFF1" transform="translate(188.50929260253906,119.72894287109375)"/>
<path d="M0 0 C3.64329146 2.11310905 4.48560628 2.95968153 6.125 6.8125 C6.48534715 10.59128563 6.40710298 14.33360364 6.3125 18.125 C6.29219727 19.66510742 6.29219727 19.66510742 6.27148438 21.23632812 C6.23623883 23.76225909 6.186967 26.2871066 6.125 28.8125 C7.445 28.8125 8.765 28.8125 10.125 28.8125 C10.125 31.1225 10.125 33.4325 10.125 35.8125 C1.93243982 36.44269694 1.93243982 36.44269694 -1.4375 33.8125 C-1.911875 33.1525 -2.38625 32.4925 -2.875 31.8125 C-3.49375 32.451875 -4.1125 33.09125 -4.75 33.75 C-7.96118512 36.86673849 -10.28288102 37.20456462 -14.76953125 37.171875 C-18.49093453 36.53668186 -20.27812849 34.47270984 -22.875 31.8125 C-24.44922753 28.66404494 -24.54428343 25.22031928 -23.875 21.8125 C-20.83095031 16.57831587 -17.15501396 15.48997726 -11.625 14 C-10.87992188 13.78408203 -10.13484375 13.56816406 -9.3671875 13.34570312 C-7.54092508 12.81889666 -5.7085055 12.31351604 -3.875 11.8125 C-3.875 10.4925 -3.875 9.1725 -3.875 7.8125 C-9.56437453 7.47783091 -13.02362289 7.53068607 -17.875 10.8125 C-18.865 10.4825 -19.855 10.1525 -20.875 9.8125 C-22.0625 7.25 -22.0625 7.25 -22.875 4.8125 C-21.77432004 3.99528283 -20.66930269 3.18390549 -19.5625 2.375 C-18.94761719 1.92253906 -18.33273438 1.47007812 -17.69921875 1.00390625 C-12.54452028 -2.36265271 -5.62955536 -2.12006659 0 0 Z " fill="#1B1D4D" transform="translate(197.875,429.1875)"/>
<path d="M0 0 C2.97 0 5.94 0 9 0 C9.33 8.58 9.66 17.16 10 26 C12.1965625 23.03 12.1965625 23.03 14.4375 20 C18.88796303 14.33214574 18.88796303 14.33214574 22.66796875 13.203125 C25.125 13.25 25.125 13.25 29 14 C27.32076975 17.80133442 24.88537166 20.97082702 22.375 24.25 C21.95476562 24.80429687 21.53453125 25.35859375 21.1015625 25.9296875 C20.07061281 27.28866663 19.03570089 28.64463835 18 30 C21.12475426 35.97779077 25.07088115 41.19214549 29.171875 46.5234375 C31 49 31 49 31 50 C27.45259782 50.73317916 24.52846259 50.90046757 21 50 C16.50489302 45.94426438 13.33882714 41.00824071 10 36 C9.67 40.62 9.34 45.24 9 50 C6.03 50 3.06 50 0 50 C0 33.5 0 17 0 0 Z " fill="#1A1B4A" transform="translate(248,415)"/>
<path d="M0 0 C3.3 0 6.6 0 10 0 C12.64 7.59 15.28 15.18 18 23 C19.77651205 20.33523193 20.70011304 18.31633801 21.7265625 15.33203125 C22.0359375 14.43935547 22.3453125 13.54667969 22.6640625 12.62695312 C22.98117187 11.69818359 23.29828125 10.76941406 23.625 9.8125 C23.94984375 8.87212891 24.2746875 7.93175781 24.609375 6.96289062 C25.41006629 4.64324087 26.20553577 2.32178985 27 0 C30.3 0 33.6 0 37 0 C35.52638719 4.03493825 34.05129264 8.06933107 32.57495117 12.10327148 C32.07521636 13.46934133 31.5758539 14.83554746 31.0769043 16.2019043 C29.39567249 20.80539805 27.70272992 25.40441619 26 30 C25.76836151 30.62800507 25.53672302 31.25601013 25.29806519 31.90304565 C24.6367685 33.69011247 23.96699023 35.47403373 23.296875 37.2578125 C22.91499023 38.27891113 22.53310547 39.30000977 22.13964844 40.35205078 C20.33136804 44.55355232 18.13574137 47.64596789 14.20703125 50.13671875 C11.43615363 51.22054876 9.2159539 51.19561795 6.25 51.125 C4.77273438 51.09792969 4.77273438 51.09792969 3.265625 51.0703125 C2.51796875 51.04710937 1.7703125 51.02390625 1 51 C0.01879536 47.94736336 0.01879536 46.05263664 1 43 C2.04800781 42.94392578 2.04800781 42.94392578 3.1171875 42.88671875 C4.02726562 42.82097656 4.93734375 42.75523437 5.875 42.6875 C6.77992188 42.62949219 7.68484375 42.57148438 8.6171875 42.51171875 C11.36221601 42.2117961 11.36221601 42.2117961 13 39 C12.64500496 34.26616869 11.03094032 30.07031926 9.27734375 25.703125 C9.01240616 25.02828064 8.74746857 24.35343628 8.47450256 23.65814209 C7.63434061 21.51987456 6.78653511 19.38475816 5.9375 17.25 C5.08577848 15.10063449 4.23578488 12.95063582 3.38978577 10.79901123 C2.86471289 9.46431954 2.33620634 8.13097255 1.80393982 6.7991333 C0 2.22403747 0 2.22403747 0 0 Z " fill="#1A1B4A" transform="translate(326,429)"/>
<path d="M0 0 C0.71884369 -0.00350464 1.43768738 -0.00700928 2.17831421 -0.01062012 C4.56037991 -0.01944059 6.9421499 -0.0135873 9.32421875 -0.00683594 C10.9756679 -0.0081825 12.62711666 -0.01012296 14.27856445 -0.01263428 C17.74206308 -0.01558596 21.20545865 -0.01128651 24.66894531 -0.00195312 C29.11467186 0.00944148 33.56015695 0.00288224 38.00587463 -0.00909805 C41.41672596 -0.01631548 44.82751977 -0.01402928 48.2383728 -0.00884247 C49.87787911 -0.00750564 51.5173906 -0.00915483 53.15689087 -0.01380157 C55.44588101 -0.01886494 57.73447683 -0.01115956 60.0234375 0 C61.97963013 0.00238678 61.97963013 0.00238678 63.9753418 0.00482178 C67.01171875 0.25878906 67.01171875 0.25878906 69.01171875 2.25878906 C69.32421875 5.25878906 69.32421875 5.25878906 69.01171875 8.25878906 C65.32611271 10.71585976 63.50691292 10.51203949 59.109375 10.51757812 C58.41149872 10.52108276 57.71362244 10.5245874 56.99459839 10.52819824 C54.687704 10.53700089 52.38111627 10.53117171 50.07421875 10.52441406 C48.47143495 10.52576114 46.86865154 10.52770203 45.26586914 10.5302124 C41.90669871 10.53316167 38.54763463 10.52887239 35.18847656 10.51953125 C30.880758 10.50813678 26.57328864 10.51469731 22.26557922 10.52667618 C18.95591349 10.53390012 15.64630692 10.5316044 12.3366394 10.52642059 C10.74819916 10.52508557 9.15975357 10.52672666 7.57131958 10.5313797 C5.35208893 10.53645374 3.13326298 10.52872264 0.9140625 10.51757812 C-0.34929932 10.51598694 -1.61266113 10.51439575 -2.91430664 10.51275635 C-5.98828125 10.25878906 -5.98828125 10.25878906 -8.98828125 8.25878906 C-9.30078125 5.25878906 -9.30078125 5.25878906 -8.98828125 2.25878906 C-6.10148036 -0.62801183 -4.04173892 0.00493139 0 0 Z " fill="#7BB5F2" transform="translate(188.98828125,287.7412109375)"/>
<path d="M0 0 C0.7361554 0.00247742 1.47231079 0.00495483 2.23077393 0.00750732 C3.00653275 0.00239639 3.78229156 -0.00271454 4.58155823 -0.00798035 C7.15359142 -0.02191445 9.7253578 -0.02091671 12.29742432 -0.01861572 C14.08099976 -0.02250064 15.86457428 -0.02683488 17.64814758 -0.03160095 C21.38991289 -0.03907143 25.13158385 -0.03876597 28.87335205 -0.0335083 C33.67328341 -0.02771337 38.47282895 -0.04464113 43.2726965 -0.06785297 C46.95724249 -0.08257053 50.64169515 -0.08346471 54.32626534 -0.08034325 C56.09613369 -0.08085748 57.86600714 -0.08611436 59.63584709 -0.09615517 C62.10915206 -0.10846382 64.58170022 -0.10176183 67.05499268 -0.09014893 C67.78912384 -0.09779266 68.523255 -0.1054364 69.27963257 -0.11331177 C72.22148567 -0.08271254 74.23116678 -0.0425956 76.70149231 1.64137268 C77.70758057 3.28216553 77.70758057 3.28216553 77.45758057 5.90716553 C76.70758057 8.28216553 76.70758057 8.28216553 75.70758057 9.28216553 C73.19294213 9.38783902 70.70562841 9.42894775 68.19024658 9.4274292 C67.40327393 9.43078781 66.61630127 9.43414642 65.80548096 9.43760681 C63.19080041 9.44714532 60.5761837 9.44906137 57.96148682 9.45013428 C56.151667 9.45334484 54.34184745 9.45670875 52.5320282 9.46022034 C48.73303628 9.46621887 44.93406713 9.4680595 41.1350708 9.46746826 C36.25775284 9.4673666 31.38058032 9.48102013 26.50329685 9.49824047 C22.76390405 9.50933778 19.02454667 9.51138817 15.28513908 9.51085854 C13.48653601 9.51204204 11.68793212 9.51648438 9.88934517 9.5241909 C7.37756172 9.53394525 4.86609724 9.53113096 2.35430908 9.52508545 C1.60566086 9.53070496 0.85701263 9.53632446 0.0856781 9.54211426 C-5.06410383 9.51048113 -5.06410383 9.51048113 -7.29241943 7.28216553 C-7.54241943 4.78216553 -7.54241943 4.78216553 -7.29241943 2.28216553 C-4.81558201 -0.1946719 -3.38095821 0.03566909 0 0 Z " fill="#75B1F1" transform="translate(187.29241943359375,203.71783447265625)"/>
<path d="M0 0 C12.21 0 24.42 0 37 0 C37 2.64 37 5.28 37 8 C32.38 8 27.76 8 23 8 C23 21.2 23 34.4 23 48 C19.7 48 16.4 48 13 48 C13 34.8 13 21.6 13 8 C8.71 8 4.42 8 0 8 C0 5.36 0 2.72 0 0 Z " fill="#1C1F4F" transform="translate(138,417)"/>
<path d="M0 0 C4.11275909 1.54228466 5.55780938 2.33671407 8 6 C6.25 8.0625 6.25 8.0625 4 10 C2.15625 9.625 2.15625 9.625 0 9 C-1.58211573 8.93451508 -3.16670081 8.91421619 -4.75 8.9375 C-5.94882813 8.95103516 -5.94882813 8.95103516 -7.171875 8.96484375 C-7.77515625 8.97644531 -8.3784375 8.98804688 -9 9 C-9 10.32 -9 11.64 -9 13 C-8.11957031 13.23074219 -7.23914063 13.46148437 -6.33203125 13.69921875 C6.03775942 17.17264499 6.03775942 17.17264499 9 22 C9.80075776 25.97952342 9.37570437 29.06073906 7.875 32.8125 C4.94280806 36.2333906 2.15819945 37.70356389 -2.33203125 38.3203125 C-8.18624973 38.59009215 -13.31308081 37.72196524 -18 34 C-19.21875 31.859375 -19.21875 31.859375 -20 30 C-18.68 28.68 -17.36 27.36 -16 26 C-11.125 27.875 -11.125 27.875 -10 29 C-8.48071962 29.07179964 -6.95832518 29.08392007 -5.4375 29.0625 C-4.19806641 29.04896484 -4.19806641 29.04896484 -2.93359375 29.03515625 C-2.29550781 29.02355469 -1.65742188 29.01195312 -1 29 C-0.67 27.35 -0.34 25.7 0 24 C-0.79664063 23.84144531 -1.59328125 23.68289063 -2.4140625 23.51953125 C-14.23388754 20.91686905 -14.23388754 20.91686905 -18 16 C-18.83477947 12.48117267 -18.88793191 9.51136712 -18 6 C-13.31751442 -0.25750346 -7.21222622 -0.63051671 0 0 Z " fill="#1B1D4D" transform="translate(231,428)"/>
<path d="M0 0 C1.21465942 -0.00630432 2.42931885 -0.01260864 3.68078613 -0.019104 C5.65734192 -0.01303131 5.65734192 -0.01303131 7.67382812 -0.00683594 C9.03381418 -0.0081827 10.39379977 -0.01012333 11.75378418 -0.01263428 C14.6052712 -0.01558503 17.45663299 -0.01128958 20.30810547 -0.00195312 C23.96690589 0.00944152 27.62541292 0.00288177 31.28420258 -0.00909805 C34.09285704 -0.01631805 36.90144172 -0.01402811 39.71009827 -0.00884247 C41.71652415 -0.00685555 43.72295272 -0.01293957 45.72937012 -0.019104 C46.94402954 -0.01279968 48.15868896 -0.00649536 49.41015625 0 C50.48334106 0.00159119 51.55652588 0.00318237 52.66223145 0.00482178 C55.20507812 0.25878906 55.20507812 0.25878906 57.20507812 2.25878906 C57.45507812 5.25878906 57.45507812 5.25878906 57.20507812 8.25878906 C54.51736275 10.94650444 53.16720916 10.51200763 49.41015625 10.51757812 C48.19549683 10.52388245 46.9808374 10.53018677 45.72937012 10.53668213 C43.75281433 10.53060944 43.75281433 10.53060944 41.73632812 10.52441406 C40.37634207 10.52576083 39.01635648 10.52770145 37.65637207 10.5302124 C34.80488505 10.53316315 31.95352326 10.52886771 29.10205078 10.51953125 C25.44325036 10.5081366 21.78474333 10.51469636 18.12595367 10.52667618 C15.31729921 10.53389618 12.50871453 10.53160624 9.70005798 10.52642059 C7.6936321 10.52443367 5.68720353 10.53051769 3.68078613 10.53668213 C2.46612671 10.53037781 1.25146729 10.52407349 0 10.51757812 C-1.07318481 10.51598694 -2.14636963 10.51439575 -3.2520752 10.51275635 C-5.79492188 10.25878906 -5.79492188 10.25878906 -7.79492188 8.25878906 C-8.04492188 5.25878906 -8.04492188 5.25878906 -7.79492188 2.25878906 C-5.1072065 -0.42892632 -3.75705291 0.0055705 0 0 Z " fill="#7BB5F2" transform="translate(187.794921875,237.7412109375)"/>
<path d="M0 0 C1.59134766 -0.03867187 1.59134766 -0.03867187 3.21484375 -0.078125 C6.0625 0.25 6.0625 0.25 7.94140625 1.765625 C8.31136719 2.25546875 8.68132812 2.7453125 9.0625 3.25 C8.4025 5.23 7.7425 7.21 7.0625 9.25 C4.0925 8.92 1.1225 8.59 -1.9375 8.25 C-2.5975 10.56 -3.2575 12.87 -3.9375 15.25 C-0.3075 15.25 3.3225 15.25 7.0625 15.25 C7.0625 17.56 7.0625 19.87 7.0625 22.25 C3.7625 22.25 0.4625 22.25 -2.9375 22.25 C-2.9375 31.82 -2.9375 41.39 -2.9375 51.25 C-5.9075 51.25 -8.8775 51.25 -11.9375 51.25 C-11.9375 41.68 -11.9375 32.11 -11.9375 22.25 C-13.9175 22.25 -15.8975 22.25 -17.9375 22.25 C-17.9375 19.94 -17.9375 17.63 -17.9375 15.25 C-16.2875 15.25 -14.6375 15.25 -12.9375 15.25 C-13.040625 14.05375 -13.14375 12.8575 -13.25 11.625 C-13.26820512 8.20850513 -12.74881276 6.44761597 -10.5625 3.8125 C-6.8612004 0.19932658 -5.07467305 0.07381343 0 0 Z " fill="#1A1C4B" transform="translate(316.9375,413.75)"/>
<path d="M0 0 C3.1875 1.5 3.1875 1.5 5 3 C4.01 5.97 3.02 8.94 2 12 C-0.97 12 -3.94 12 -7 12 C-7.33 12.99 -7.66 13.98 -8 15 C-1.07 15 5.86 15 13 15 C16.09918889 21.97317501 19.0836138 28.95206669 22 36 C24.31 29.4 26.62 22.8 29 16 C32.96 16 36.92 16 41 16 C39.52928182 24.28693127 36.61930971 31.93325601 33.62451172 39.76586914 C32.75258796 42.05570354 31.90139057 44.35256746 31.05078125 46.65039062 C27.82908941 55.20382101 24.73288077 62.79299488 17.75 69 C13.56785986 70.52077823 9.39951236 70.55083325 5 70 C3.68 69.34 2.36 68.68 1 68 C1.33 65.03 1.66 62.06 2 59 C6 58 6 58 9.125 58.0625 C12.13239112 58.32865655 12.13239112 58.32865655 14 56 C13.64920842 51.14535436 12.42857468 46.94395074 10.71484375 42.41015625 C10.26689453 41.21455078 9.81894531 40.01894531 9.35742188 38.78710938 C8.88884766 37.55798828 8.42027344 36.32886719 7.9375 35.0625 C7.45963505 33.79386497 6.98241559 32.5249866 6.50585938 31.25585938 C5.34355589 28.16812385 4.17476771 25.08301014 3 22 C2.67 23.32 2.34 24.64 2 26 C-1.3 26 -4.6 26 -8 26 C-8 35.57 -8 45.14 -8 55 C-11.96 55 -15.92 55 -20 55 C-20 45.43 -20 35.86 -20 26 C-21.65 26 -23.3 26 -25 26 C-25 22.7 -25 19.4 -25 16 C-23.35 16 -21.7 16 -20 16 C-20.103125 14.80375 -20.20625 13.6075 -20.3125 12.375 C-20.31842325 9.03428727 -19.8592028 7.23086524 -17.75 4.625 C-12.29837903 -0.57882001 -7.32745699 -0.74792091 0 0 Z M-18 7 C-19.14352916 9.28705831 -19.10334439 10.59264762 -19.0625 13.125 C-19.041875 14.40375 -19.02125 15.6825 -19 17 C-20.65 17 -22.3 17 -24 17 C-24 19.31 -24 21.62 -24 24 C-22.02 24 -20.04 24 -18 24 C-18 33.57 -18 43.14 -18 53 C-15.03 53 -12.06 53 -9 53 C-9 43.43 -9 33.86 -9 24 C-5.7 24 -2.4 24 1 24 C1 21.69 1 19.38 1 17 C-2.63 17 -6.26 17 -10 17 C-9.34 14.69 -8.68 12.38 -8 10 C-4.65747276 9.92572162 -2.1964086 9.93453047 1 11 C1.66 8.69 2.32 6.38 3 4 C-4.03365234 -0.68910156 -12.59250829 0.86176617 -18 7 Z M3 17 C4.65899142 22.20370307 6.47935144 27.28672093 8.515625 32.35546875 C8.96164062 33.47244141 9.40765625 34.58941406 9.8671875 35.74023438 C10.79528511 38.05392403 11.7329257 40.36380672 12.6796875 42.66992188 C13.12054688 43.78302734 13.56140625 44.89613281 14.015625 46.04296875 C14.42071289 47.04352295 14.82580078 48.04407715 15.24316406 49.07495117 C16.11387398 52.44010458 15.8537686 54.65445368 15 58 C13.33657163 59.66342837 11.2174291 59.36048097 8.9375 59.5625 C8.01839844 59.64628906 7.09929687 59.73007812 6.15234375 59.81640625 C5.44207031 59.87699219 4.73179687 59.93757813 4 60 C3.61936779 62.3260857 3.28730055 64.66055264 3 67 C4.70792999 68.70792999 6.85543481 68.25270346 9.1875 68.3125 C14.30561874 68.24620313 17.17689081 67.63661606 21 64 C24.2462654 58.82354493 26.51694891 53.52412589 28.671875 47.8203125 C28.99915588 46.96694305 29.32643677 46.11357361 29.66363525 45.23434448 C30.34857961 43.44533671 31.03081389 41.65528919 31.71044922 39.86425781 C32.75555424 37.11036437 33.80868449 34.35964591 34.86328125 31.609375 C35.52910831 29.8673642 36.19448914 28.12518276 36.859375 26.3828125 C37.17493347 25.55685577 37.49049194 24.73089905 37.81561279 23.87991333 C39.32687808 20.52622198 39.32687808 20.52622198 40 17 C36.7 17 33.4 17 30 17 C27.36 24.59 24.72 32.18 22 40 C20.22348795 37.33523193 19.29988696 35.31633801 18.2734375 32.33203125 C17.809375 30.99301758 17.809375 30.99301758 17.3359375 29.62695312 C16.86027344 28.23379883 16.86027344 28.23379883 16.375 26.8125 C16.05015625 25.87212891 15.7253125 24.93175781 15.390625 23.96289062 C14.58993371 21.64324087 13.79446423 19.32178985 13 17 C9.7 17 6.4 17 3 17 Z " fill="#6DA1DE" transform="translate(323,412)"/>
<path d="M0 0 C1.88700623 -0.00472824 1.88700623 -0.00472824 3.81213379 -0.009552 C5.19571975 -0.00776222 6.5793054 -0.00571127 7.96289062 -0.00341797 C9.37154151 -0.00409106 10.78019229 -0.00506112 12.18884277 -0.00631714 C15.14462385 -0.00779389 18.10037476 -0.0056403 21.05615234 -0.00097656 C24.85288647 0.00472073 28.64954991 0.0014416 32.44628143 -0.00454903 C35.35610491 -0.00815526 38.2659115 -0.00701577 41.17573547 -0.00442123 C42.57603463 -0.00375214 43.9763353 -0.00457979 45.37663269 -0.00690079 C47.33051526 -0.00942829 49.28440318 -0.0048958 51.23828125 0 C52.35223267 0.00079559 53.46618408 0.00159119 54.6138916 0.00241089 C57.11914062 0.12939453 57.11914062 0.12939453 58.11914062 1.12939453 C58.30664062 4.06689453 58.30664062 4.06689453 58.11914062 7.12939453 C55.43142525 9.81710991 54.08127166 9.3826131 50.32421875 9.38818359 C49.10955933 9.39448792 47.8948999 9.40079224 46.64343262 9.4072876 C44.66687683 9.4012149 44.66687683 9.4012149 42.65039062 9.39501953 C41.29040457 9.3963663 39.93041898 9.39830692 38.57043457 9.40081787 C35.71894755 9.40376862 32.86758576 9.39947318 30.01611328 9.39013672 C26.35731286 9.37874207 22.69880583 9.38530183 19.04001617 9.39728165 C16.23136171 9.40450165 13.42277703 9.4022117 10.61412048 9.39702606 C8.6076946 9.39503914 6.60126603 9.40112316 4.59484863 9.4072876 C3.38018921 9.40098328 2.16552979 9.39467896 0.9140625 9.38818359 C-0.15912231 9.38659241 -1.23230713 9.38500122 -2.3380127 9.38336182 C-4.88085938 9.12939453 -4.88085938 9.12939453 -6.88085938 7.12939453 C-7.06835938 4.06689453 -7.06835938 4.06689453 -6.88085938 1.12939453 C-5.08989893 -0.66156592 -2.41753152 0.00172662 0 0 Z " fill="#75B1F1" transform="translate(186.880859375,322.87060546875)"/>
<path d="M0 0 C1.21465942 -0.00630432 2.42931885 -0.01260864 3.68078613 -0.019104 C5.65734192 -0.01303131 5.65734192 -0.01303131 7.67382812 -0.00683594 C9.03381418 -0.0081827 10.39379977 -0.01012333 11.75378418 -0.01263428 C14.6052712 -0.01558503 17.45663299 -0.01128958 20.30810547 -0.00195312 C23.96690589 0.00944152 27.62541292 0.00288177 31.28420258 -0.00909805 C34.09285704 -0.01631805 36.90144172 -0.01402811 39.71009827 -0.00884247 C41.71652415 -0.00685555 43.72295272 -0.01293957 45.72937012 -0.019104 C46.94402954 -0.01279968 48.15868896 -0.00649536 49.41015625 0 C50.48334106 0.00159119 51.55652588 0.00318237 52.66223145 0.00482178 C55.20507812 0.25878906 55.20507812 0.25878906 57.20507812 2.25878906 C57.45507812 4.75878906 57.45507812 4.75878906 57.20507812 7.25878906 C54.51736275 9.94650444 53.16720916 9.51200763 49.41015625 9.51757812 C48.19549683 9.52388245 46.9808374 9.53018677 45.72937012 9.53668213 C43.75281433 9.53060944 43.75281433 9.53060944 41.73632812 9.52441406 C40.37634207 9.52576083 39.01635648 9.52770145 37.65637207 9.5302124 C34.80488505 9.53316315 31.95352326 9.52886771 29.10205078 9.51953125 C25.44325036 9.5081366 21.78474333 9.51469636 18.12595367 9.52667618 C15.31729921 9.53389618 12.50871453 9.53160624 9.70005798 9.52642059 C7.6936321 9.52443367 5.68720353 9.53051769 3.68078613 9.53668213 C2.46612671 9.53037781 1.25146729 9.52407349 0 9.51757812 C-1.07318481 9.51598694 -2.14636963 9.51439575 -3.2520752 9.51275635 C-5.79492188 9.25878906 -5.79492188 9.25878906 -7.79492188 7.25878906 C-8.04492188 4.75878906 -8.04492188 4.75878906 -7.79492188 2.25878906 C-5.1072065 -0.42892632 -3.75705291 0.0055705 0 0 Z " fill="#71AFF1" transform="translate(187.794921875,153.7412109375)"/>
<path d="M0 0 C3.01826831 1.89762414 4.59206981 3.99324187 5.890625 7.2421875 C6.11767578 9.62402344 6.11767578 9.62402344 6.0859375 12.2265625 C6.07949219 13.16113281 6.07304687 14.09570312 6.06640625 15.05859375 C6.04964844 16.02667969 6.03289062 16.99476563 6.015625 17.9921875 C6.00660156 18.97574219 5.99757812 19.95929688 5.98828125 20.97265625 C5.96475285 23.39608157 5.93187868 25.81900972 5.890625 28.2421875 C8.25922351 28.96725494 8.25922351 28.96725494 10.890625 29.2421875 C12.57773923 27.5962224 14.2451872 25.92981601 15.890625 24.2421875 C18.64088033 24.2421875 19.63527708 25.02205999 21.703125 26.8046875 C24.77972562 28.82645362 27.29476851 28.44964076 30.890625 28.2421875 C30.04104414 25.96328337 30.04104414 25.96328337 27.34375 25.34765625 C26.28671875 25.04472656 25.2296875 24.74179687 24.140625 24.4296875 C19.02650803 22.80606178 16.13658373 21.49551273 12.890625 17.2421875 C11.27440019 14.00973788 11.30608192 10.73645614 11.890625 7.2421875 C13.96920833 3.43422285 16.85232599 0.81583071 20.890625 -0.7578125 C27.30016932 -1.44518703 33.48089542 -1.64172092 38.890625 2.2421875 C40.765625 4.4296875 40.765625 4.4296875 41.890625 6.2421875 C40.240625 8.2221875 38.590625 10.2021875 36.890625 12.2421875 C32.140625 11.3671875 32.140625 11.3671875 29.890625 10.2421875 C27.89102488 10.2021955 25.89015258 10.19871951 23.890625 10.2421875 C23.560625 10.9021875 23.230625 11.5621875 22.890625 12.2421875 C23.61507812 12.34015625 24.33953125 12.438125 25.0859375 12.5390625 C32.07589463 13.62017587 37.1292877 14.83653816 41.765625 20.5546875 C43.24179743 24.08109942 43.35681395 26.4460775 42.890625 30.2421875 C40.83234587 34.52340809 38.63753114 37.12046994 34.08203125 38.7734375 C28.0420541 40.06541122 22.04171898 40.0581197 16.265625 37.8671875 C13.890625 36.2421875 13.890625 36.2421875 11.890625 34.2421875 C11.601875 34.8815625 11.313125 35.5209375 11.015625 36.1796875 C9.890625 38.2421875 9.890625 38.2421875 7.890625 39.2421875 C2.86444017 39.6215222 -0.00825536 39.22481997 -4.109375 36.2421875 C-4.65851563 36.726875 -5.20765625 37.2115625 -5.7734375 37.7109375 C-9.8872478 40.40761583 -14.37238832 39.98833135 -19.109375 39.2421875 C-22.77941439 37.38583036 -24.79030626 35.19939373 -26.109375 31.2421875 C-26.61246234 26.83811148 -26.68439415 23.34430753 -24.609375 19.3671875 C-19.2090997 14.77695349 -12.99831233 13.85727119 -6.109375 13.2421875 C-6.439375 12.2521875 -6.769375 11.2621875 -7.109375 10.2421875 C-12.46915126 9.73173262 -14.8025534 11.1795588 -19.109375 14.2421875 C-20.099375 14.2421875 -21.089375 14.2421875 -22.109375 14.2421875 C-23.429375 11.6021875 -24.749375 8.9621875 -26.109375 6.2421875 C-18.68016229 -0.32316327 -9.97184225 -3.58247666 0 0 Z M-22.109375 4.2421875 C-23.34014359 6.2954061 -23.34014359 6.2954061 -24.109375 8.2421875 C-23.119375 9.5621875 -22.129375 10.8821875 -21.109375 12.2421875 C-17.56418616 10.84458845 -17.56418616 10.84458845 -14.109375 9.2421875 C-12.56913504 9.17268209 -11.02602512 9.15766393 -9.484375 9.1796875 C-8.25847656 9.19322266 -8.25847656 9.19322266 -7.0078125 9.20703125 C-6.06808594 9.22443359 -6.06808594 9.22443359 -5.109375 9.2421875 C-5.109375 10.5621875 -5.109375 11.8821875 -5.109375 13.2421875 C-6.21796875 13.54511719 -7.3265625 13.84804688 -8.46875 14.16015625 C-9.93255869 14.58240876 -11.39608602 15.00563749 -12.859375 15.4296875 C-13.58898437 15.62626953 -14.31859375 15.82285156 -15.0703125 16.02539062 C-19.82818955 17.43112703 -22.47681225 18.78916362 -25.109375 23.2421875 C-25.85936959 28.38700309 -25.85936959 28.38700309 -24.05078125 33.0546875 C-22.28380659 35.23587877 -20.63633185 36.97870907 -18.109375 38.2421875 C-12.76228126 38.5928166 -9.48065193 38.68622387 -5.109375 35.2421875 C-4.779375 34.5821875 -4.449375 33.9221875 -4.109375 33.2421875 C-3.635 33.9021875 -3.160625 34.5621875 -2.671875 35.2421875 C1.03938063 38.13877726 4.34459707 37.59188196 8.890625 37.2421875 C8.890625 34.9321875 8.890625 32.6221875 8.890625 30.2421875 C7.570625 30.2421875 6.250625 30.2421875 4.890625 30.2421875 C4.90633545 29.60192627 4.9220459 28.96166504 4.93823242 28.30200195 C5.00079615 25.38632119 5.03968308 22.47078195 5.078125 19.5546875 C5.10326172 18.54728516 5.12839844 17.53988281 5.15429688 16.50195312 C5.34061837 9.32997147 5.34061837 9.32997147 1.890625 3.2421875 C-5.89773843 -1.27506329 -14.78128065 -1.45158365 -22.109375 4.2421875 Z M13.890625 6.2421875 C13.263499 9.6491701 13.30944639 12.83045378 13.890625 16.2421875 C18.36270366 22.08073464 24.93974705 22.85876034 31.890625 24.2421875 C31.560625 25.8921875 31.230625 27.5421875 30.890625 29.2421875 C22.69806482 29.7148352 22.69806482 29.7148352 19.328125 27.7421875 C18.85375 27.2471875 18.379375 26.7521875 17.890625 26.2421875 C15.26875006 27.29093748 14.09691139 27.89150063 12.640625 30.3671875 C12.393125 30.9859375 12.145625 31.6046875 11.890625 32.2421875 C17.61172667 37.14598893 21.89585421 38.7189439 29.3828125 38.5625 C33.95397557 37.97864428 37.35905129 36.10671202 40.328125 32.4921875 C41.20197826 28.99677448 41.52599262 25.77906728 40.890625 22.2421875 C37.02089377 15.93595883 29.67968846 15.02145889 22.890625 13.2421875 C22.890625 11.9221875 22.890625 10.6021875 22.890625 9.2421875 C24.30718293 9.214946 25.72389545 9.19568283 27.140625 9.1796875 C28.32398438 9.16228516 28.32398438 9.16228516 29.53125 9.14453125 C31.79753502 9.23833444 33.7195145 9.60977687 35.890625 10.2421875 C37.210625 8.5921875 38.530625 6.9421875 39.890625 5.2421875 C36.92578167 1.80921101 34.06725525 0.48605744 29.5546875 -0.01953125 C22.61471926 -0.32172206 18.86885144 1.26396106 13.890625 6.2421875 Z " fill="#78ABE6" transform="translate(199.109375,427.7578125)"/>
<path d="M0 0 C2.5 0.25 2.5 0.25 4.5 2.25 C4.72705078 4.68017578 4.72705078 4.68017578 4.6953125 7.6953125 C4.68564453 9.30986328 4.68564453 9.30986328 4.67578125 10.95703125 C4.65902344 12.08496094 4.64226562 13.21289062 4.625 14.375 C4.61597656 15.51066406 4.60695313 16.64632812 4.59765625 17.81640625 C4.57403098 20.62781299 4.54109013 23.43880298 4.5 26.25 C5.28785889 26.55341309 6.07571777 26.85682617 6.88745117 27.16943359 C10.43301435 28.63590052 12.63620152 30.71920134 15.5 33.25 C14.75 38 14.75 38 12.5 40.25 C7.99942269 40.00169229 5.27023574 37.91396218 1.75 35.25 C0.78578125 34.528125 -0.1784375 33.80625 -1.171875 33.0625 C-3.5 31.25 -3.5 31.25 -4.5 30.25 C-4.7541555 25.60984675 -4.68522798 20.95878694 -4.6875 16.3125 C-4.69974609 14.99830078 -4.71199219 13.68410156 -4.72460938 12.33007812 C-4.72750977 10.4515918 -4.72750977 10.4515918 -4.73046875 8.53515625 C-4.73457764 7.37894775 -4.73868652 6.22273926 -4.74291992 5.03149414 C-4.42415024 1.38150116 -3.6907726 0.36907726 0 0 Z " fill="#1C1B49" transform="translate(354.5,236.75)"/>
<path d="M0 0 C2.36328125 0.421875 2.36328125 0.421875 4.36328125 2.421875 C4.7194627 5.28718297 4.66978706 6.88984935 3.2175293 9.41064453 C2.69199463 10.03567871 2.16645996 10.66071289 1.625 11.3046875 C1.05201172 11.99691406 0.47902344 12.68914062 -0.11132812 13.40234375 C-0.71783203 14.11003906 -1.32433594 14.81773437 -1.94921875 15.546875 C-2.54412109 16.26230469 -3.13902344 16.97773438 -3.75195312 17.71484375 C-9.37674488 24.43945512 -9.37674488 24.43945512 -11.63671875 26.421875 C-16.38137922 26.3904013 -18.71745405 23.9084275 -21.94921875 20.671875 C-22.83222656 19.81078125 -23.71523437 18.9496875 -24.625 18.0625 C-26.63671875 15.421875 -26.63671875 15.421875 -27.1171875 12.71875 C-26.63671875 10.421875 -26.63671875 10.421875 -23.63671875 8.421875 C-18.68998859 8.55557041 -16.13897359 11.24541131 -12.63671875 14.421875 C-12.25966797 13.59429687 -12.25966797 13.59429687 -11.875 12.75 C-10.41624381 10.00735429 -8.71118935 7.63972947 -6.82421875 5.171875 C-6.15777344 4.27984375 -5.49132812 3.3878125 -4.8046875 2.46875 C-2.63671875 0.421875 -2.63671875 0.421875 0 0 Z " fill="#F8F8F9" transform="translate(142.63671875,212.578125)"/>
<path d="M0 0 C2.26171875 0.53125 2.26171875 0.53125 4.26171875 2.53125 C4.32645944 8.70936132 0.62557567 12.34159036 -3.17578125 16.78125 C-3.77455078 17.50054687 -4.37332031 18.21984375 -4.99023438 18.9609375 C-7.1713056 21.5694303 -9.33317363 24.12614238 -11.73828125 26.53125 C-16.50206219 26.3689406 -18.78493007 24.05193948 -22.05078125 20.78125 C-22.93378906 19.92015625 -23.81679687 19.0590625 -24.7265625 18.171875 C-26.73828125 15.53125 -26.73828125 15.53125 -27.15625 12.828125 C-26.73828125 10.53125 -26.73828125 10.53125 -24.73828125 8.53125 C-22.48828125 8.09375 -22.48828125 8.09375 -19.73828125 8.53125 C-17.60822018 10.06235474 -15.71662593 11.80156467 -13.73828125 13.53125 C-13.00222656 12.5928125 -12.26617187 11.654375 -11.5078125 10.6875 C-10.52292322 9.46811327 -9.53720242 8.24939784 -8.55078125 7.03125 C-8.06802734 6.41121094 -7.58527344 5.79117188 -7.08789062 5.15234375 C-3.41163746 0.66188687 -3.41163746 0.66188687 0 0 Z " fill="#F9F9FA" transform="translate(142.73828125,128.46875)"/>
<path d="M0 0 C1 1 1 1 1.390625 3.125 C0.81255779 7.37957468 -1.54173798 9.77489408 -4.25 13 C-4.74113281 13.60328125 -5.23226562 14.2065625 -5.73828125 14.828125 C-6.70273063 16.01118291 -7.67587013 17.1872177 -8.65820312 18.35546875 C-9.85913455 19.82735268 -10.96083689 21.37891095 -12.046875 22.9375 C-14 25 -14 25 -16.3828125 25.63671875 C-20.12614868 24.72602652 -22.27190362 22.49479111 -24.875 19.8125 C-25.38546875 19.32974609 -25.8959375 18.84699219 -26.421875 18.34960938 C-27.8671875 16.89453125 -27.8671875 16.89453125 -30 14 C-29.82532751 9.82532751 -29.82532751 9.82532751 -28 8 C-21.61102107 8.4732577 -21.61102107 8.4732577 -19.1875 10.5625 C-18.795625 11.036875 -18.40375 11.51125 -18 12 C-17.34 12 -16.68 12 -16 12 C-14.42362994 10.05012435 -12.94982761 8.10291234 -11.5 6.0625 C-6.05243593 -1.55190665 -6.05243593 -1.55190665 0 0 Z " fill="#F8F8F9" transform="translate(146,298)"/>
<path d="M0 0 C3.96 0 7.92 0 12 0 C12.33 8.25 12.66 16.5 13 25 C15.31 22.03 17.62 19.06 20 16 C21 15 21 15 23.50390625 14.90234375 C25.01791016 14.91974609 25.01791016 14.91974609 26.5625 14.9375 C27.57441406 14.94652344 28.58632813 14.95554687 29.62890625 14.96484375 C30.80259766 14.98224609 30.80259766 14.98224609 32 15 C31.51814387 19.7221901 29.30336567 22.70054372 26.4375 26.3125 C26.01275391 26.86228516 25.58800781 27.41207031 25.15039062 27.97851562 C24.10818741 29.3251827 23.05516157 30.66346201 22 32 C24.07283582 36.76513981 27.41976846 40.75454359 30.54296875 44.8671875 C33.0541563 48.27888836 34 49.63931511 34 54 C29.78205982 54.7707911 26.18852899 55.02086011 22 54 C18.23852755 50.41164971 15.62869538 46.4608164 13 42 C12.67 45.96 12.34 49.92 12 54 C8.04 54 4.08 54 0 54 C0 36.18 0 18.36 0 0 Z M2 2 C2 18.5 2 35 2 52 C4.97 52 7.94 52 11 52 C11.33 47.38 11.66 42.76 12 38 C13.06541016 39.39025391 13.06541016 39.39025391 14.15234375 40.80859375 C15.08069105 42.01825842 16.00907855 43.22789224 16.9375 44.4375 C17.40607422 45.04916016 17.87464844 45.66082031 18.35742188 46.29101562 C20.55671824 49.24968885 20.55671824 49.24968885 23 52 C24.68608966 52.07205511 26.37500659 52.08386068 28.0625 52.0625 C28.98160156 52.05347656 29.90070313 52.04445313 30.84765625 52.03515625 C31.55792969 52.02355469 32.26820313 52.01195312 33 52 C28.92872357 45.44741308 24.75494402 39.07866469 20 33 C25.58971736 24.35610717 25.58971736 24.35610717 28.875 20.5625 C31.21277862 18.2982421 31.21277862 18.2982421 31 16 C26.41970102 15.11266398 26.41970102 15.11266398 22 16 C18.03450415 19.75158943 15.29983025 23.53825769 12 28 C11.67 19.42 11.34 10.84 11 2 C8.03 2 5.06 2 2 2 Z " fill="#76A8E2" transform="translate(246,413)"/>
<path d="M0 0 C2.97 0 5.94 0 9 0 C9 11.88 9 23.76 9 36 C6.03 36 3.06 36 0 36 C0 24.12 0 12.24 0 0 Z " fill="#181746" transform="translate(284,429)"/>
<path d="M0 0 C3.1875 1.5 3.1875 1.5 5 3 C4.01 5.97 3.02 8.94 2 12 C-0.97 12 -3.94 12 -7 12 C-7.33 12.99 -7.66 13.98 -8 15 C-1.07 15 5.86 15 13 15 C13 15.33 13 15.66 13 16 C5.74 16 -1.52 16 -9 16 C-9 10 -9 10 -8 9 C-2.47058824 8.76470588 -2.47058824 8.76470588 0 10 C0.66 8.02 1.32 6.04 2 4 C-2.19098644 1.90450678 -7.43487556 2.59163773 -12 3 C-15.2863782 4.12849923 -15.2863782 4.12849923 -17 7 C-17.96851037 10.3043295 -18.56364132 13.58728432 -19 17 C-20.65 17 -22.3 17 -24 17 C-24 19.31 -24 21.62 -24 24 C-22.02 24 -20.04 24 -18 24 C-18 33.57 -18 43.14 -18 53 C-15.03 53 -12.06 53 -9 53 C-9 43.76 -9 34.52 -9 25 C-5.37 25 -1.74 25 2 25 C2 25.33 2 25.66 2 26 C-1.3 26 -4.6 26 -8 26 C-8 35.57 -8 45.14 -8 55 C-11.96 55 -15.92 55 -20 55 C-20 45.43 -20 35.86 -20 26 C-21.65 26 -23.3 26 -25 26 C-25 22.7 -25 19.4 -25 16 C-23.35 16 -21.7 16 -20 16 C-20.103125 14.80375 -20.20625 13.6075 -20.3125 12.375 C-20.31842325 9.03428727 -19.8592028 7.23086524 -17.75 4.625 C-12.29837903 -0.57882001 -7.32745699 -0.74792091 0 0 Z " fill="#7DADE5" transform="translate(323,412)"/>
<path d="M0 0 C13.2 0 26.4 0 40 0 C40 3.63 40 7.26 40 11 C35.38 11 30.76 11 26 11 C26 24.2 26 37.4 26 51 C22.04 51 18.08 51 14 51 C14 37.8 14 24.6 14 11 C9.38 11 4.76 11 0 11 C0 7.37 0 3.74 0 0 Z M2 1 C2 3.64 2 6.28 2 9 C6.29 9 10.58 9 15 9 C15 22.2 15 35.4 15 49 C18.3 49 21.6 49 25 49 C25 35.8 25 22.6 25 9 C29.62 9 34.24 9 39 9 C39 6.36 39 3.72 39 1 C26.79 1 14.58 1 2 1 Z " fill="#75AEEB" transform="translate(136,416)"/>
<path d="M0 0 C3.96 0 7.92 0 12 0 C12 13.2 12 26.4 12 40 C8.04 40 4.08 40 0 40 C0 26.8 0 13.6 0 0 Z M2 2 C2 13.88 2 25.76 2 38 C4.97 38 7.94 38 11 38 C11 26.12 11 14.24 11 2 C8.03 2 5.06 2 2 2 Z " fill="#8ABBF1" transform="translate(282,427)"/>
<path d="M0 0 C0.31390173 4.002247 0.34116018 6.38328737 -1.625 9.9375 C-4 12 -4 12 -7.125 12.4375 C-10 12 -10 12 -12 10 C-12.34496967 7.30923659 -12.39801426 5.67164907 -11 3.3125 C-7.90267335 1.27987939 -3.72320976 0 0 0 Z " fill="#77AAE4" transform="translate(195,447)"/>
<path d="M0 0 C1.8125 1.1875 1.8125 1.1875 3 3 C3.3125 5.5625 3.3125 5.5625 3 8 C1 10 1 10 -2.5 10.25 C-6 10 -6 10 -8 8 C-8.36487512 5.15397406 -8.40199375 3.6135694 -6.8125 1.1875 C-4.35092224 -0.42525784 -2.88934264 -0.4334014 0 0 Z " fill="#1B1C4C" transform="translate(291,414)"/>
<path d="M0 0 C2.07980731 2.07980731 2.55520887 3.15871101 3.47265625 5.87890625 C3.73240234 6.63494141 3.99214844 7.39097656 4.25976562 8.16992188 C4.52466797 8.95947266 4.78957031 9.74902344 5.0625 10.5625 C6.40925787 15.66703581 6.40925787 15.66703581 9 20 C11.31 13.4 13.62 6.8 16 0 C17.07859286 4.31437143 16.85094137 5.22520129 15.34765625 9.203125 C14.98349609 10.1828125 14.61933594 11.1625 14.24414062 12.171875 C13.85419922 13.18765625 13.46425781 14.2034375 13.0625 15.25 C12.67642578 16.28125 12.29035156 17.3125 11.89257812 18.375 C10.93802268 20.92048119 9.97355028 23.46173614 9 26 C5.75041296 22.75041296 4.85423632 18.41238006 3.375 14.125 C2.88773437 12.75794922 2.88773437 12.75794922 2.390625 11.36328125 C2.08382813 10.48285156 1.77703125 9.60242188 1.4609375 8.6953125 C1.18040527 7.89109863 0.89987305 7.08688477 0.61083984 6.25830078 C0 4 0 4 0 0 Z " fill="#7EB2EB" transform="translate(336,428)"/>
<path d="M0 0 C0.33 1.65 0.66 3.3 1 5 C-3.85313736 7.21556271 -8.58292707 8.7790146 -13.765625 10.05859375 C-16.55304257 11.23301269 -17.50192887 12.393638 -19 15 C-19.56327743 17.11818257 -19.56327743 17.11818257 -19.6875 19.25 C-19.790625 20.4875 -19.89375 21.725 -20 23 C-20.33 23 -20.66 23 -21 23 C-21.34640501 18.5833361 -21.58418995 15.11969741 -19.5 11.125 C-14.0997247 6.53476599 -7.88893733 5.61508369 -1 5 C-1.33 4.01 -1.66 3.02 -2 2 C-6.78063737 1.66646716 -8.99189105 2.50847281 -13 5 C-13.99 4.67 -14.98 4.34 -16 4 C-10.45834744 0.22695996 -6.65545792 -0.54330269 0 0 Z " fill="#73A8E3" transform="translate(194,436)"/>
<path d="M0 0 C0.33 0.99 0.66 1.98 1 3 C0 4 0 4 -2.28515625 4.09765625 C-3.65994141 4.08025391 -3.65994141 4.08025391 -5.0625 4.0625 C-5.98160156 4.05347656 -6.90070313 4.04445313 -7.84765625 4.03515625 C-8.55792969 4.02355469 -9.26820313 4.01195312 -10 4 C-10 6.31 -10 8.62 -10 11 C-5.71 11.33 -1.42 11.66 3 12 C1 14 1 14 -1.2421875 14.265625 C-2.11101562 14.26046875 -2.97984375 14.2553125 -3.875 14.25 C-4.73867188 14.25515625 -5.60234375 14.2603125 -6.4921875 14.265625 C-9 14 -9 14 -13 12 C-12.67 9.03 -12.34 6.06 -12 3 C-8 2 -8 2 -4.875 2.0625 C-1.86760888 2.32865655 -1.86760888 2.32865655 0 0 Z " fill="#81B0E7" transform="translate(337,468)"/>
<path d="M0 0 C0.33 1.32 0.66 2.64 1 4 C-7.42857143 6.28571429 -7.42857143 6.28571429 -12 6 C-11.05275873 3.63189682 -10.34708866 2.24792047 -8.25 0.75 C-5.42246362 -0.19251213 -2.96006696 -0.1345485 0 0 Z " fill="#F4F8FD" transform="translate(192,437)"/>
<path d="M0 0 C3.28674376 3.28674376 6.04776903 6.18040245 8.8125 9.8125 C9.41707031 10.60269531 10.02164062 11.39289063 10.64453125 12.20703125 C11.09183594 12.79871094 11.53914063 13.39039063 12 14 C11.01 14 10.02 14 9 14 C7.17578125 12.03125 7.17578125 12.03125 5.3125 9.5 C4.68988281 8.6646875 4.06726563 7.829375 3.42578125 6.96875 C2.95527344 6.3190625 2.48476563 5.669375 2 5 C1.67 8.63 1.34 12.26 1 16 C-2.63 16 -6.26 16 -10 16 C-10 15.67 -10 15.34 -10 15 C-6.7 15 -3.4 15 0 15 C0 10.05 0 5.1 0 0 Z " fill="#71ABEA" transform="translate(257,450)"/>
<path d="M0 0 C0.125 2.375 0.125 2.375 0 5 C-2 7 -2 7 -5.125 7.125 C-6.548125 7.063125 -6.548125 7.063125 -8 7 C-8 5.35 -8 3.7 -8 2 C-4.91190305 0.23537317 -3.76687864 0 0 0 Z " fill="#FAFCFE" transform="translate(193,450)"/>
<path d="M0 0 C2.51064595 0.44832963 3.85397562 0.87411692 5.8125 2.5625 C8.88910062 4.58426612 11.40414351 4.20745326 15 4 C14.04134491 1.66924071 14.04134491 1.66924071 11 0 C12.65 0 14.3 0 16 0 C16.042721 1.66611905 16.04063832 3.33382885 16 5 C14.43022426 6.56977574 12.85803613 6.20737081 10.6875 6.25 C6.77448965 6.22519486 4.93249782 5.70692106 2 3 C1.01 3 0.02 3 -1 3 C-0.67 2.01 -0.34 1.02 0 0 Z " fill="#76AAE4" transform="translate(215,452)"/>
</svg>
